<svg width="40" height="40" fill="none" xmlns="http://www.w3.org/2000/svg"><circle cx="20" cy="20" r="20" fill="#F8F9F9"/><path fill-rule="evenodd" clip-rule="evenodd" d="M16.42 14.922a45.893 45.893 0 0 1 7.16 0l1.6.125c.891.07 1.62.738 1.768 1.62.369 2.207.369 4.46 0 6.666a1.947 1.947 0 0 1-1.768 1.62l-1.6.125a45.893 45.893 0 0 1-7.16 0l-1.6-.125a1.947 1.947 0 0 1-1.768-1.62 20.227 20.227 0 0 1 0-6.666 1.947 1.947 0 0 1 1.768-1.62l1.6-.125Zm2.151 6.843v-3.53c0-.166.182-.269.325-.183l2.94 1.765a.214.214 0 0 1 0 .367l-2.94 1.764a.214.214 0 0 1-.325-.183Z" fill="#29CDB5"/></svg>